<?xml version="1.0" encoding="UTF-8" standalone="no"?>
<!-- Created with Inkscape (http://www.inkscape.org/) -->

<svg
   width="266.47626mm"
   height="70.525192mm"
   viewBox="0 0 1007.1544 266.55191"
   version="1.1"
   id="svg1"
   xml:space="preserve"
   inkscape:export-filename="bitmap.svg"
   inkscape:export-xdpi="96"
   inkscape:export-ydpi="96"
   inkscape:version="1.4.3 (0d15f75, 2025-12-25)"
   sodipodi:docname="inomeado.svg"
   xmlns:inkscape="http://www.inkscape.org/namespaces/inkscape"
   xmlns:sodipodi="http://sodipodi.sourceforge.net/DTD/sodipodi-0.dtd"
   xmlns="http://www.w3.org/2000/svg"
   xmlns:svg="http://www.w3.org/2000/svg"><sodipodi:namedview
     id="namedview1"
     pagecolor="#ffffff"
     bordercolor="#000000"
     borderopacity="0.25"
     inkscape:showpageshadow="2"
     inkscape:pageopacity="0.0"
     inkscape:pagecheckerboard="0"
     inkscape:deskcolor="#d1d1d1"
     inkscape:document-units="mm"
     inkscape:zoom="0.48693448"
     inkscape:cx="413.81338"
     inkscape:cy="500.06728"
     inkscape:window-width="1920"
     inkscape:window-height="991"
     inkscape:window-x="-9"
     inkscape:window-y="-9"
     inkscape:window-maximized="1"
     inkscape:current-layer="layer1"
     showguides="false"><inkscape:page
       x="0"
       y="0"
       width="1007.1544"
       height="266.55191"
       id="page2"
       margin="0"
       bleed="0" /></sodipodi:namedview><defs
     id="defs1" /><g
     inkscape:label="Camada 1"
     inkscape:groupmode="layer"
     id="layer1"
     transform="translate(1119.7019,-361.3466)"><path
       style="fill:#ffffff"
       d="m -802.55504,614.81856 v -13.0282 l 13.75,0.2782 c 12.99059,0.2629 13.75,0.3887 13.75,2.2783 0,1.8583 -0.76128,2.0201 -10.75,2.2838 -10.54868,0.2785 -10.75,0.328 -10.75,2.643 0,2.8526 1.62967,3.5732 8.08178,3.5732 4.21148,0 4.91822,0.2805 4.91822,1.9522 0,1.6964 -0.81926,1.9914 -6.25,2.25 -5.96935,0.2844 -6.26406,0.4197 -6.5631,3.0133 l -0.3131,2.7155 10.8131,0.2845 c 10.35276,0.2724 10.8267,0.3802 11.13265,2.5345 0.31839,2.2418 0.26866,2.25 -13.75,2.25 h -14.06955 z m 37,0.028 c 0,-12.8292 0.0295,-12.9993 2.25,-12.9513 1.26785,0.027 6.83337,3.7054 12.75,8.4259 l 10.5,8.3772 0.5,-8.1759 c 0.49134,-8.0344 0.54759,-8.1813 3.25,-8.4923 l 2.75,-0.3164 v 13.0664 13.0664 h -2.56069 c -1.71097,0 -5.83872,-2.6546 -12.43931,-8 -5.43325,-4.4 -10.13094,-8 -10.43932,-8 -0.30838,0 -0.56068,3.6 -0.56068,8 v 8 h -3 -3 z m 44.2,11.8 c -1.45277,-1.4527 -1.63966,-20.5545 -0.22307,-22.8 0.73766,-1.1692 3.65571,-1.5713 13.23469,-1.8234 13.99754,-0.3685 17.78838,0.5245 17.78838,4.1903 0,3.0811 -4.56442,4.6111 -6.37385,2.1366 -0.9419,-1.2882 -2.85771,-1.5329 -10.14369,-1.2958 l -8.98246,0.2923 v 7.5 7.5 l 9.75,0.2863 9.75,0.2862 v -2.5362 c 0,-2.3768 -0.3143,-2.5363 -5,-2.5363 -4.66667,0 -5,-0.1666 -5,-2.5 0,-2.4583 0.13333,-2.5 8,-2.5 h 8 v 6.3 c 0,3.5667 -0.52064,6.8207 -1.2,7.5 -1.66925,1.6693 -27.93076,1.6693 -29.6,0 z m 41.8,-11.8282 v -13.0282 l 13.75,0.2782 c 13.4013,0.2712 13.7581,0.3353 14.06955,2.5282 0.3142,2.2124 0.14149,2.25 -10.31643,2.25 h -10.63597 l 0.31642,2.75 c 0.30093,2.6154 0.58577,2.7545 5.81643,2.8407 4.79512,0.079 5.54012,0.3611 5.81308,2.2006 0.2866,1.9315 -0.22099,2.1354 -6,2.4094 -5.98746,0.2839 -6.31308,0.4283 -6.31308,2.7993 0,2.4941 0.0257,2.5007 10.75,2.7839 10.68394,0.2821 10.75,0.299 10.75,2.75 v 2.4661 h -14 -14 z m 37.22012,0.2782 c 0.35536,-16.1885 0.50286,-16.2422 14.454,-5.2594 5.59577,4.4052 10.65827,8.0094 11.25,8.0094 0.67818,0 1.07588,-2.9572 1.07588,-8 0,-7.8666 0.0417,-8 2.5,-8 h 2.5 v 13 13 h -2.37194 c -1.46386,0 -6.20522,-3.0627 -12.38465,-8 -5.50699,-4.4 -10.28962,-8 -10.62806,-8 -0.33845,0 -0.61535,3.6 -0.61535,8 v 8 h -3.02988 -3.02988 z m 43.77988,-0.25 v -13 h 2.94521 c 2.80413,0 2.9598,0.2276 3.25,4.75 l 0.30479,4.75 9.75,0.2863 9.75,0.2862 v -5.0362 c 0,-4.908 0.075,-5.0363 2.9444,-5.0363 h 2.94441 l 0.30559,13.0018 0.3056,13.0017 h -3.19774 c -3.15229,0 -3.20204,-0.076 -3.5,-5.2517 l -0.30226,-5.25 h -9.5 -9.5 l -0.30226,5.25 c -0.29234,5.0776 -0.39905,5.25 -3.25,5.25 h -2.94774 z m 42.45165,8.75 c 1.41076,-2.3375 4.9218,-8.2077 7.8023,-13.045 4.87152,-8.1808 5.44432,-8.7744 8.20167,-8.5 2.55798,0.2546 3.79244,1.6207 9.00438,9.9644 3.322,5.3181 6.85294,11.0556 7.84653,12.75 l 1.80654,3.0806 h -3.89602 c -3.18534,0 -4.10381,-0.456 -5.0351,-2.5 -1.09015,-2.3926 -1.51933,-2.5 -9.99154,-2.5 -8.41916,0 -8.91794,0.1224 -10.19041,2.5 -1.02295,1.9114 -2.13557,2.5 -4.72566,2.5 h -3.3877 z m 20.51714,-7 c -0.0172,-0.6875 -1.0765,-2.9502 -2.35408,-5.0282 -1.77154,-2.8816 -2.56519,-3.4749 -3.34381,-2.5 -1.19093,1.4911 -4.2709,7.4252 -4.2709,8.2286 0,0.3023 2.25,0.5496 5,0.5496 3.34997,0 4.9897,-0.4125 4.96879,-1.25 z m 20.25133,-1.5 0.27988,-12.75 h 13.78813 c 15.74524,0 15.67216,-0.038 15.69655,8.1276 0.0165,5.5152 -0.99407,7.013 -5.5541,8.2326 l -2.69727,0.7213 5.2048,3.9593 5.20481,3.9592 -4.72512,0.3111 c -4.43605,0.292 -5.00839,0.032 -9.35581,-4.25 -3.5627,-3.5091 -5.37234,-4.5611 -7.84635,-4.5611 -3.14447,0 -3.21565,0.1 -3.21565,4.5 0,4.4835 -0.013,4.5 -3.52988,4.5 h -3.52987 z m 23.27987,-4.75 v -3 l -8.25,-0.2904 -8.25,-0.2904 v 3.5808 3.5809 l 8.25,-0.2904 8.25,-0.2905 z m 16.72012,4.75 0.27988,-12.75 h 3 3 l 0.27988,12.75 0.27988,12.75 h -3.55976 -3.55975 z m 14.81518,12 c 0.0194,-0.4125 3.28191,-6.15 7.25,-12.75 6.51177,-10.8308 7.51657,-12.0294 10.31294,-12.302 2.98745,-0.2912 3.37141,0.1558 10.7369,12.5 l 7.63866,12.802 -3.21684,0.3305 c -2.49239,0.2561 -3.68022,-0.2506 -5.27446,-2.25 -1.91085,-2.3964 -2.64178,-2.5805 -10.24701,-2.5805 -7.63186,0 -8.3009,0.1702 -9.82745,2.5 -1.12072,1.7105 -2.54921,2.5 -4.52305,2.5 -1.58674,0 -2.8691,-0.3375 -2.84969,-0.75 z m 21.9647,-10.2898 c 0,-1.1968 -3.84249,-8.9602 -4.43483,-8.9602 -0.81205,0 -5.33212,8.8998 -4.79359,9.4383 1.01297,1.013 9.22842,0.5874 9.22842,-0.4781 z m -663.22775,4.2848 c -14.7044,-0.2577 -16.8211,-0.5019 -17.5,-2.019 -0.4247,-0.9493 -0.5472,-59.326 -0.2722,-129.726 l 0.5,-127.99995 h 502.99996 503 l 0.25374,129.74995 0.25375,129.75 H -253.7513 c -93.80295,0 -140.86924,-0.3345 -140.20727,-0.9964 0.64995,-0.65 49.31751,-1.0847 139.95,-1.25 l 138.95353,-0.2536 0.25385,-126.3928 c 0.18594,-92.57518 -0.0475,-126.75604 -0.87244,-127.75004 -0.94291,-1.13614 -41.48754,-1.35711 -249.00386,-1.35711 h -247.87755 v 2.498 2.498 l 246.24999,0.252 246.25001,0.252 0.25771,121.99995 c 0.24041,113.8108 0.14368,122.0839 -1.44113,123.25 -1.33946,0.9856 -30.16383,1.2468 -136.25771,1.2347 -120.44592,-0.014 -140.70611,-0.3404 -137.05888,-2.2104 0.275,-0.141 61.7,-0.4854 136.50001,-0.7653 l 136,-0.509 v -120.5 -120.49995 l -493.7307,-0.25101 -493.73066,-0.251 -0.5436,2.251 c -0.299,1.23805 -0.4201,55.57601 -0.2693,120.75096 l 0.2743,118.5 135.40184,0.2536 c 98.04841,0.1837 135.77379,0.5623 136.75,1.3725 0.74146,0.6154 1.34812,2.4249 1.34812,4.0211 0,2.1998 -0.62462,3.1398 -2.58027,3.8834 -2.32033,0.8821 -214.64429,1.0555 -262.64749,0.2144 z m 560.22776,-64.2165 v -5.9716 l -63.75,-0.305 c -69.5884,-0.3329 -68.68994,-0.2585 -74.61721,-6.1857 -5.77704,-5.7771 -5.93529,-7.2813 -6.36497,-60.5026 -0.21508,-26.6401 -0.12975,-49.47756 0.18962,-50.75001 0.5732,-2.28383 0.7653,-2.31354 14.95462,-2.31354 12.18468,0 14.46641,0.24092 14.98095,1.58178 0.33384,0.86999 0.60699,22.64617 0.60699,48.39157 v 46.8098 l 18.75,0.745 c 19.95726,0.793 64.23921,-0.155 65.51011,-1.4023 0.41806,-0.4104 0.64306,-21.644 0.5,-47.186 l -0.26011,-46.43985 -8.25,-0.29045 c -10.90249,-0.38382 -10.69591,-2.20955 0.25,-2.20955 h 8.5 v -8 c 0,-4.66667 0.41666,-8 1,-8 0.58333,0 1,3.33333 1,8 v 8 h 13.5 13.5 v -8.5 c 0,-5 0.41176,-8.5 1,-8.5 0.58823,0 1,3.5 1,8.5 v 8.5 h 8.5 c 5,0 8.5,0.41176 8.5,1 0,0.58823 -3.5,1 -8.5,1 h -8.5 v 57.99995 58 h 6.5 c 3.66666,0 6.5,0.4359 6.5,1 0,0.5641 -2.83334,1 -6.5,1 h -6.5 v 6 c 0,3.3334 -0.44445,6 -1,6 -0.55503,0 -1,-2.6572 -1,-5.9715 z m -13.78106,-9.9241 c 5.82686,-1.8508 9.55785,-5.6137 11.2646,-11.3609 1.26483,-4.2591 1.51646,-13.2069 1.51646,-53.925 v -48.81845 h -13 -13 v 47.79995 c 0,35.8445 -0.30014,48.1002 -1.2,49 -0.85641,0.8565 -7.15556,1.2 -22,1.2 h -20.8 v 9.096 9.0959 l 26.75,-0.4531 c 16.52797,-0.28 28.17112,-0.9045 30.46894,-1.6344 z m 13.76997,-3.3544 -0.0111,-5.25 -2.50567,3.1788 c -1.37811,1.7484 -3.73562,4.0966 -5.23891,5.2184 l -2.73324,2.0395 5.25,0.032 5.25,0.032 z m 37.85125,10.5 c -0.73729,-17.6716 -5.17453,-11.8017 44.15983,-58.4175 23.925,-22.6066 43.65,-41.492 43.83333,-41.9677 0.18394,-0.4772 -16.95899,-0.8648 -38.24999,-0.8648 h -38.58334 v 5 c 0,2.75 -0.45,5 -1,5 -0.55,0 -1,-2.25 -1,-5 v -5 h -8 c -4.66666,0 -8,-0.4166 -8,-1 0,-0.5837 3.34631,-1 8.03893,-1 h 8.03894 l -0.28894,-8.74995 -0.28893,-8.75 -7.75,-0.29207 c -10.23309,-0.38564 -10.02676,-2.20793 0.25,-2.20793 h 8 v -8 c 0,-4.66667 0.41667,-8 1,-8 0.58334,0 1,3.33333 1,8 v 8 h 63 63 v -8.55902 c 0,-5.45137 0.36309,-8.33462 1,-7.94098 0.5886,0.36377 1,6.30265 1,14.43583 v 13.81781 l -7.75,7.49801 c -4.2625,4.1239 -24.4,23.1072 -44.75,42.1851 -20.35,19.0779 -37.15158,35.114 -37.33686,35.6358 -0.21001,0.5914 16.1705,0.8505 43.5,0.688 l 43.83686,-0.2606 0.29638,-6.7803 c 0.37666,-8.6169 2.20362,-7.921 2.20362,0.8394 v 6.4409 l 7.25,0.1766 7.25,0.1766 -7,0.5734 -7,0.5734 -0.28752,9.25 -0.28753,9.25 h 6.47851 c 3.56318,0 6.75662,0.45 7.09654,1 0.38973,0.6306 -1.98961,1 -6.44098,1 h -7.05902 v 6 c 0,7.6631 -1.80277,7.868 -2.20009,0.25 l -0.29991,-5.75 -67.25,-0.257 -67.25,-0.257 v 6.007 c 0,9.3058 -1.74986,7.0835 -2.15983,-2.743 z m 136.65983,-14.25 v -8.5 l -45.41699,-0.5 c -31.69805,-0.3489 -45.52752,-0.8318 -45.78288,-1.5986 -0.54492,-1.6362 -0.26779,-1.9068 46.95025,-45.8449 27.81604,-25.8838 43.97858,-41.62048 44.37692,-43.20761 0.34459,-1.37297 0.12907,-3.58812 -0.47894,-4.92257 l -1.10548,-2.42605 h -62.06037 -62.06037 l 0.28893,8.75 0.28893,8.75003 39.4618,0.2618 c 22.58622,0.1498 39.85921,0.6592 40.39111,1.1911 1.22562,1.2256 -2.39022,4.8212 -48.35291,48.083 -21.175,19.9307 -39.0625,36.937 -39.75,37.792 -0.6875,0.8549 -1.25,3.7215 -1.25,6.3702 v 4.8159 l 67.25,-0.257 67.25,-0.257 z m 46.5,21.7322 c 0,-0.6974 1.125,-2.9235 2.5,-4.947 1.375,-2.0235 2.5,-4.1529 2.5,-4.7321 0,-0.6834 -4.56336,-1.0531 -13,-1.0531 -7.15,0 -13,-0.2873 -13,-0.6385 0,-0.3511 16.3022,-27.3511 36.22711,-60 l 36.2271,-59.36145 h 12.7729 c 7.02509,0 12.77264,-0.3375 12.77234,-0.75 -3.1e-4,-0.4125 -1.80006,-3.675 -3.99944,-7.25 -2.19939,-3.575 -3.99913,-6.8375 -3.99944,-7.25 -0.002,-2.23214 2.03094,0.10145 6.3149,7.25 l 4.79423,8 h 9.38613 c 5.17874,0 9.66318,0.44825 10.00418,1 0.39465,0.63855 -2.65629,1 -8.44099,1 -4.98246,0 -9.05901,0.17794 -9.05901,0.39542 0,0.21748 4.1253,6.85498 9.16734,14.75003 21.12647,33.0806 67.99013,109.4954 69.39232,113.1494 1.5171,3.9535 -1.7173,1.2512 -5.14053,-4.2949 l -3.70341,-6 h -15.23542 c -12.95133,0 -15.44117,-0.2479 -16.60786,-1.6535 -0.75484,-0.9094 -4.30744,-6.6469 -7.89465,-12.75 l -6.52222,-11.0965 -39.86135,-0.2616 c -29.82407,-0.1957 -40.2248,0.04 -41.30471,0.9363 -1.42608,1.1836 -11.66559,18.0359 -12.87739,21.1937 -0.54516,1.4207 0.35728,1.6316 6.98089,1.6316 4.40466,0 7.60699,0.421 7.60699,1 0,0.5894 -3.59328,1.0062 -8.75,1.015 l -8.75,0.015 -3.50001,5.9701 c -3.40574,5.8094 -5,7.3182 -5,4.7322 z m 14.92338,-25.7322 7.5866,-12.5 42.12363,-0.2607 42.12363,-0.2608 7.73637,13.0108 7.73637,13.0107 h 13.50164 c 12.40494,0 13.4642,-0.1432 13.04056,-1.7632 -0.75686,-2.8942 -62.69579,-103.34907 -68.43275,-110.98675 l -2.44121,-3.25 h -9.8241 c -5.40326,0 -11.15644,0.26646 -12.78483,0.59214 -2.67793,0.53559 -6.27163,6.02186 -37.625,57.43971 -19.06536,31.2662 -34.66429,57.1136 -34.66429,57.4387 0,0.325 5.47578,0.4646 12.16839,0.3102 l 12.16838,-0.2808 z m 20.44628,-32.479 c -0.58097,-1.514 24.34644,-47.5211 27.52767,-50.8063 1.65952,-1.7137 1.79244,-1.7137 3.31595,0 3.39185,3.8154 28.90822,49.5263 28.39407,50.8662 -0.83147,2.1668 -58.40558,2.1085 -59.23769,-0.06 z m 56.02836,-1.3559 c 0.64546,-1.0444 -25.54474,-46.4691 -26.8576,-46.5823 -1.2539,-0.1081 -26.64202,45.4438 -25.95102,46.5619 0.68275,1.1047 52.1262,1.1245 52.80862,0.02 z m -833.73057,47.4217 c -10.2841,-2.808 -15.0582,-9.9138 -15.1267,-22.5145 l -0.041,-7.4997 7.1738,-1.6792 c 3.9455,-0.9236 9.8855,-1.994 13.1999,-2.3787 l 6.0261,-0.6994 0.3001,6.3424 0.3001,6.3423 44.75,0.2603 44.75,0.2603 v -12.9553 -12.9554 l -46.25,-0.3448 c -51.9636,-0.3875 -53.7706,-0.6076 -59.6138,-7.2627 -4.6749,-5.3244 -5.599,-10.0125 -5.6187,-28.5024 -0.019,-18.2905 1.0992,-23.34246 6.2644,-28.29102 6.2845,-6.02088 7.2587,-6.12841 58.7766,-6.48749 39.22332,-0.27338 48.27533,-0.0743 54.36706,1.1959 12.8518,2.67967 17.40362,8.02869 17.51056,20.57731 l 0.0639,7.4946 -9.9801,2.214 c -16.05676,3.5619 -14.93688,3.7931 -15.5199,-3.2033 l -0.5,-6 h -41.50002 -41.5 v 12 12 l 47.00002,0.5704 c 51.49769,0.6249 52.20996,0.7063 58.14176,6.6381 4.56145,4.5614 5.4643,8.5457 6.07108,26.7915 0.79077,23.7785 -1.74154,31.8733 -11.46982,36.6642 l -4.74302,2.3358 -54.00002,0.2031 c -42.1221,0.1585 -55.063,-0.087 -58.8325,-1.1163 z m 187.00003,0 c -6.58959,-1.7962 -9.71859,-4.3001 -12.66747,-10.1365 l -2.5,-4.9481 v -43.5 -43.49996 l 2.33582,-4.74302 c 5.58862,-11.34798 8.009,-11.72288 75.66418,-11.71981 30.57323,0.001 56.99017,0.43467 60.89252,0.99875 9.74693,1.40891 14.03604,4.10154 17.38029,10.91104 l 2.72719,5.553 v 42 c 0,44.1627 -0.18934,46.3089 -4.64579,52.6642 -1.02749,1.4653 -4.00253,3.7153 -6.61119,5 l -4.74302,2.3358 -61.5,0.2009 c -48.26869,0.1577 -62.53969,-0.082 -66.33253,-1.1163 z m 113.09485,-58.8346 0.26232,-36.75 h -48.8602 -48.86019 l -0.68665,13.6822 c -0.37766,7.5252 -0.37602,24.1795 0.004,37.0094 l 0.69029,23.3273 48.59424,-0.2594 48.59424,-0.2595 z"
       id="path43"
       inkscape:export-filename="..\..\OneDrive\Ãrea de Trabalho\path43.svg"
       inkscape:export-xdpi="96"
       inkscape:export-ydpi="96" /></g></svg>
