<?xml version="1.0" encoding="UTF-8" standalone="no"?>
<!-- Created with Inkscape (http://www.inkscape.org/) -->

<svg
   width="86.20726mm"
   height="55.564091mm"
   viewBox="0 0 325.82272 210.00602"
   version="1.1"
   id="svg1"
   xml:space="preserve"
   xmlns:inkscape="http://www.inkscape.org/namespaces/inkscape"
   xmlns:sodipodi="http://sodipodi.sourceforge.net/DTD/sodipodi-0.dtd"
   xmlns="http://www.w3.org/2000/svg"
   xmlns:svg="http://www.w3.org/2000/svg"><sodipodi:namedview
     id="namedview1"
     pagecolor="#ffffff"
     bordercolor="#000000"
     borderopacity="0.25"
     inkscape:showpageshadow="2"
     inkscape:pageopacity="0.0"
     inkscape:pagecheckerboard="0"
     inkscape:deskcolor="#d1d1d1"
     inkscape:document-units="mm"><inkscape:page
       x="0"
       y="0"
       width="325.82272"
       height="210.00603"
       id="page2"
       margin="0"
       bleed="0" /></sodipodi:namedview><defs
     id="defs1" /><g
     inkscape:label="Camada 1"
     inkscape:groupmode="layer"
     id="layer1"
     transform="translate(-245.4719,-223.87959)"><path
       style="fill:#ffffff;fill-opacity:1"
       d="m 350.29465,430.3856 c 0,-3.22222 0.23809,-3.5 3,-3.5 3.7604,0 3.99883,1.97447 0.25,2.07029 -2.43685,0.0623 -2.52226,0.16815 -0.75,0.92971 1.94752,0.83688 1.94883,0.86127 0.05,0.92971 -2.57514,0.0928 -0.83682,1.75979 2.45,2.34943 1.8213,0.32674 1.48195,0.48547 -1.25,0.58468 -3.64499,0.13237 -3.75,0.0382 -3.75,-3.36382 z m 11,0.5 c 0,-3.3994 0.9964,-3.70369 4.53518,-1.38499 2.26896,1.48668 2.46482,1.48668 2.46482,0 0,-0.88826 0.45,-1.61501 1,-1.61501 0.55,0 1,1.35 1,3 0,3.56007 -0.30671,3.62985 -4.09563,0.93191 l -2.90437,-2.0681 v 2.0681 c 0,1.13745 -0.45,2.06809 -1,2.06809 -0.55,0 -1,-1.35 -1,-3 z m 14.18664,-0.25 c 0.33487,-3.47313 4.74298,-5.22038 7.13518,-2.82818 0.7709,0.77091 0.003,1.07818 -2.69515,1.07818 -4.29199,0 -5.0239,3.22641 -0.86646,3.81955 2.36563,0.33751 3.11653,-1.29911 0.98979,-2.15727 -0.6875,-0.27741 -0.2375,-0.53991 1,-0.58333 1.60964,-0.0565 2.25,0.49025 2.25,1.92105 0,1.67186 -0.66667,2 -4.06336,2 -3.98192,0 -4.05708,-0.0651 -3.75,-3.25 z m 12.81336,-0.25 c 0,-3.33333 0.16666,-3.5 3.5,-3.5 4.09823,0 4.81063,1.9665 0.75,2.07029 -2.43685,0.0623 -2.52226,0.16815 -0.75,0.92971 1.71021,0.7349 1.74643,0.86961 0.25,0.92971 -2.78431,0.11183 -2.02658,1.89555 1,2.35404 2.21205,0.33509 2.01643,0.4459 -1,0.56642 -3.64759,0.14574 -3.75,0.0542 -3.75,-3.35017 z m 12.09968,0.75 c -0.11025,-3.59454 0.46775,-3.89175 3.34144,-1.7182 2.6398,1.99664 3.34557,1.85344 3.85314,-0.7818 0.26827,-1.39283 0.48525,-0.82138 0.56955,1.5 0.15778,4.34466 -0.12859,4.47349 -3.6998,1.66437 l -2.65145,-2.08563 -0.6566,2.33563 c -0.56648,2.01506 -0.67029,1.88956 -0.75628,-0.91437 z m 12.90032,-0.25 c 0,-1.65 0.45,-3 1,-3 0.55,0 1,0.45 1,1 0,0.55 1.125,1 2.5,1 1.375,0 2.5,-0.45 2.5,-1 0,-0.55 0.45,-1 1,-1 0.55,0 1,1.35 1,3 0,1.65 -0.45,3 -1,3 -0.55,0 -1,-0.675 -1,-1.5 0,-0.93333 -0.94445,-1.5 -2.5,-1.5 -1.55556,0 -2.5,0.56667 -2.5,1.5 0,0.825 -0.45,1.5 -1,1.5 -0.55,0 -1,-1.35 -1,-3 z m 13,2.15437 c 0,-0.1901 0.97862,-1.71998 2.17472,-3.39975 l 2.17473,-3.05412 2.3203,2.89975 c 3.07298,3.84038 3.03994,3.89975 -2.16975,3.89975 -2.475,0 -4.5,-0.15553 -4.5,-0.34563 z m 5,-3.15437 c 0,-0.55 -0.19845,-1 -0.44099,-1 -0.24254,0 -0.7191,0.45 -1.05901,1 -0.33992,0.55 -0.14148,1 0.44098,1 0.58246,0 1.05902,-0.45 1.05902,-1 z m 8.17272,0.93658 c 0.49193,-5.16558 7.30744,-5.33833 7.36117,-0.18658 0.0382,3.66404 0.0659,3.64137 -2.66356,2.18061 -1.47085,-0.78718 -2.39756,-0.73794 -3.51153,0.18657 -1.30865,1.08608 -1.46908,0.79112 -1.18608,-2.1806 z m 5.02728,-2.13658 c -0.93334,-0.93333 -1.46667,-0.93333 -2.4,0 -0.93334,0.93333 -0.66667,1.2 1.2,1.2 1.86666,0 2.13333,-0.26667 1.2,-1.2 z m 6.8,2.2 c 0,-1.65 0.45,-3 1,-3 0.55,0 1,1.35 1,3 0,1.65 -0.45,3 -1,3 -0.55,0 -1,-1.35 -1,-3 z m 7.01253,1.02393 c 2.89661,-5.24929 3.51915,-5.49036 5.82301,-2.25489 2.78069,3.90512 2.88756,3.727 -2.25292,3.75489 -3.65669,0.0198 -4.26721,-0.23668 -3.57009,-1.5 z m 4.98747,-1.46491 c 0,-0.24254 -0.45,-0.7191 -1,-1.05902 -0.55,-0.33992 -1,-0.14148 -1,0.44098 0,0.58246 0.45,1.05902 1,1.05902 0.55,0 1,-0.19844 1,-0.44098 z M 245.75543,419.6356 c -0.26204,-0.6875 -0.36042,-44.9 -0.21861,-98.25 l 0.25783,-97 162.75,-0.253 162.75,-0.25301 v 98.50301 98.503 h -35 -35 v -2.98615 -2.98614 l 32.25,-0.26386 32.25,-0.26385 v -92 -92 l -157.25,-0.25311 -157.25,-0.2531 v 92.5031 92.50311 h 31.89301 c 33.69973,0 34.17039,0.0652 32.46861,4.5 -0.78415,2.04346 -69.12409,2.28787 -69.90084,0.25 z m 324.53922,-97.25 v -96.5 h -80 c -52.33963,0 -80,0.34365 -80,0.99391 0,0.64789 27.24166,1.08306 78.25,1.25 l 78.25,0.25609 0.25512,93.73614 0.25512,93.73614 -32.17211,0.26386 c -24.65843,0.20224 -32.26935,0.55579 -32.58846,1.51386 -0.32764,0.98369 6.84494,1.25 33.66699,1.25 h 34.08334 z m -240.30152,97.86515 c -0.38417,-0.38417 -0.69848,-1.52348 -0.69848,-2.53182 0,-1.97011 3.40744,-2.60112 4.5,-0.83333 1.52888,2.47379 14.5,1.16678 14.5,-1.46107 0,-2.40523 -0.19852,-2.46762 -8.75,-2.75 l -8.75,-0.28893 -0.31795,-4.46374 c -0.41845,-5.87489 1.22285,-7.03626 9.94398,-7.03626 7.67554,0 11.87397,1.23988 11.87397,3.50663 0,1.89904 -3.22187,3.32776 -3.77337,1.67328 -0.77011,-2.31035 -14.22663,-1.53465 -14.22663,0.82009 0,1.82664 0.67177,2.00133 7.75,2.01531 9.82025,0.0194 10.45114,0.43211 10.06105,6.58144 l -0.31105,4.90325 -10.55152,0.28182 c -5.80333,0.155 -10.86583,-0.0325 -11.25,-0.41667 z m 32.96818,-0.0318 c -1.76159,-1.76159 -0.68855,-17.25125 1.26759,-18.29815 3.2403,-1.73415 20.63868,-1.31939 22.49432,0.53625 1.60457,1.60457 2.28077,13.41646 0.96444,16.84678 -0.63,1.64176 -23.16567,2.4758 -24.72635,0.91512 z m 20.13105,-9.08333 0.29772,-6.25 h -8.04772 -8.04771 v 6.54206 6.54207 l 7.75,-0.29207 7.75,-0.29206 z m 15.90077,9.11515 c -1.88221,-1.88223 -0.74371,-19.36517 1.26107,-19.36517 1.76426,0 1.98851,0.82223 2.25,8.25 l 0.29045,8.25 h 7 7 l 0.29044,-8.25 c 0.26335,-7.48048 0.47659,-8.25 2.28621,-8.25 1.87747,0 1.9788,0.57795 1.70956,9.75 l -0.28621,9.75 -10.55152,0.28182 c -5.80333,0.155 -10.86583,-0.0325 -11.25,-0.41667 z m 31.30152,-0.0916 c 0,-0.39957 3.25123,-3.99957 7.22497,-8 l 7.22497,-7.27357 h -6.7983 c -5.93554,0 -6.75577,-0.22209 -6.46324,-1.75 0.42881,-2.23972 20.8116,-3.27641 20.8116,-1.0585 0,0.69381 -3.25124,4.53455 -7.22498,8.53498 l -7.22497,7.27352 h 7.22497 c 5.75553,0 7.22498,0.30508 7.22498,1.5 0,1.24242 -1.88889,1.5 -11,1.5 -6.05,0 -11,-0.32692 -11,-0.72648 z m 31.56461,-4.02357 c 10.87883,-18.7589 11.04261,-18.8057 19.2469,-5.5 5.96083,9.66725 5.99051,9.75277 3.49776,10.0763 -1.66904,0.21663 -3.00291,-0.37159 -3.96838,-1.75 -2.10959,-3.01185 -13.7042,-3.06867 -15.57297,-0.0763 -0.68696,1.1 -2.30853,2 -3.60349,2 h -2.35448 z m 13.96818,-6.18659 c -2.12357,-4.10653 -3.07351,-4.41331 -4.92341,-1.59001 -2.42916,3.70738 -1.99186,4.5266 2.4163,4.5266 h 4.02568 z m -52.34371,-33.2696 -0.18908,-5.70619 -7.25,-0.34511 -7.25,-0.34512 7.25,-0.19869 7.25,-0.1987 0.19267,-60.25 c 0.10598,-33.1375 0.35245,-57.4375 0.54772,-54 l 0.35504,6.25 h 58.90457 58.90456 l 0.35504,-6.25 0.35504,-6.25 0.19268,6.25 0.19268,6.25 7.25,0.17659 7.25,0.17658 -7,0.57342 -7,0.57341 -0.28879,8.73994 -0.28879,8.73994 -45.71121,0.26006 -45.71121,0.26006 -0.28174,11.75 -0.28174,11.75 h 27.03174 27.03174 v 8.9501 8.95009 l 5.75,0.36082 5.75,0.36082 -5.69521,0.18909 -5.69521,0.18908 -0.37455,4.75 -0.37454,4.75 -0.18025,-4.75 -0.18024,-4.75 h -26.5 -26.5 v 12.99011 12.99011 l 46.75,0.25989 46.75,0.25989 0.28564,9.70321 0.28565,9.70321 6.21435,0.35411 6.21436,0.35411 -6.2001,0.19268 -6.2001,0.19268 -0.36082,5.75 -0.36082,5.75 -0.18908,-5.75 -0.18908,-5.75 h -59.9501 -59.9501 l -0.36082,5.75 -0.36082,5.75 z m 120.31092,-16.07313 v -8.77932 l -46.5,-0.22068 -46.5,-0.22068 -0.27736,-14.23362 -0.27736,-14.23361 26.77736,-0.26639 26.77736,-0.26638 v -8 -8 l -26.77976,-0.26639 -26.77975,-0.26639 0.27975,-12.73361 0.27976,-12.73361 45.75,-0.26009 45.75,-0.26009 v -8.48991 -8.48991 h -58.38337 -58.38337 l -0.60298,2.25 c -0.79811,2.97813 -0.78626,96.17314 0.0128,101.00788 l 0.62112,3.75787 59.11788,-0.25787 59.11792,-0.25788 z m -251.5,9.61051 c -13.89928,-1.66708 -19.03902,-7.13248 -20.34405,-21.63311 -0.61904,-6.87833 -0.71247,-6.80942 12.42198,-9.16178 12.5975,-2.2562 11.92207,-2.50909 11.92207,4.4637 v 6 h 41.03077 41.03078 l -0.28078,-12.25 -0.28077,-12.25 -43.5,-0.5 c -51.3032,-0.58969 -51.36426,-0.60273 -55.72484,-11.90067 -2.2439,-5.8138 -2.56569,-32.36834 -0.46411,-38.29935 1.65759,-4.67798 6.91878,-9.33881 12.42582,-11.0079 6.08072,-1.84296 91.40285,-1.85677 97.46766,-0.0158 8.7678,2.6615 13.71851,10.1328 13.10809,19.78194 l -0.31262,4.94178 -8,1.68519 c -4.4,0.92685 -9.4625,1.95974 -11.25,2.29531 l -3.25,0.61013 v -5.54532 -5.54531 h -38.53276 -38.53275 l 0.28275,11.25 0.28276,11.25 43.5,0.5 c 58.78858,0.67573 57.5,-0.0526 57.5,32.5 0,21.9358 -2.6125,28.15867 -13.28106,31.63493 -3.61538,1.17804 -88.64727,2.22434 -97.21894,1.19626 z"
       id="path1"
       inkscape:export-filename="se.svg"
       inkscape:export-xdpi="96"
       inkscape:export-ydpi="96" /></g></svg>
